<?xml version="1.0" standalone="no"?>
<!DOCTYPE svg PUBLIC "-//W3C//DTD SVG 20010904//EN"
 "http://www.w3.org/TR/2001/REC-SVG-20010904/DTD/svg10.dtd">
<svg version="1.0" xmlns="http://www.w3.org/2000/svg"
 width="1024.000000pt" height="1024.000000pt" viewBox="0 0 1024.000000 1024.000000"
 preserveAspectRatio="xMidYMid meet">

<g transform="translate(0.000000,1024.000000) scale(0.100000,-0.100000)"
fill="#000000" stroke="none">
<path d="M0 5120 l0 -5120 5120 0 5120 0 0 5120 0 5120 -5120 0 -5120 0 0
-5120z m4302 1706 c61 -18 113 -59 146 -115 l27 -46 5 -665 5 -665 132 -3 132
-3 3 152 3 151 32 27 c64 53 428 263 465 268 27 4 48 -1 80 -19 109 -63 376
-231 401 -252 l27 -24 0 -151 c0 -114 3 -151 13 -151 6 0 28 3 47 6 l36 6 0
144 c1 175 -7 163 179 273 72 43 165 99 207 126 69 42 82 47 121 43 29 -4 64
-19 103 -45 32 -22 118 -75 189 -117 72 -43 146 -91 166 -106 l36 -28 29 23
c16 12 121 79 233 149 243 150 240 149 357 78 43 -27 137 -84 207 -127 70 -43
139 -91 152 -107 24 -28 25 -35 25 -174 l0 -144 24 0 c55 0 56 2 56 140 0 71
4 140 10 155 6 16 37 43 82 71 412 257 403 253 474 215 122 -64 420 -259 431
-281 9 -18 13 -105 13 -330 0 -283 -1 -307 -19 -336 -26 -42 -56 -63 -267
-188 -136 -80 -189 -106 -215 -106 -53 0 -458 234 -489 282 -9 15 -16 59 -18
126 l-4 102 -38 0 -38 0 -4 -104 c-3 -101 -4 -106 -33 -136 -28 -29 -283 -189
-382 -239 -47 -24 -84 -27 -116 -9 -46 24 -46 29 -47 323 l0 280 -171 100
c-94 55 -191 117 -215 138 l-44 39 -39 -34 c-21 -18 -116 -80 -210 -137 l-171
-104 0 -214 c0 -117 2 -213 5 -213 3 0 58 30 121 66 123 71 211 104 275 104
31 0 39 -4 39 -19 0 -47 -78 -109 -320 -254 -152 -91 -168 -98 -206 -94 -42 4
-302 147 -406 222 -72 53 -82 73 -86 187 l-4 99 -42 -3 -41 -3 -5 -107 c-4
-95 -8 -109 -29 -132 -13 -14 -117 -80 -230 -148 -159 -94 -214 -122 -242
-122 -36 -1 -108 38 -369 194 -129 78 -134 87 -138 216 l-4 105 -131 -3 -132
-3 0 -295 0 -295 667 -5 c525 -4 670 -8 680 -18 17 -17 -4 -55 -55 -96 l-39
-31 -549 -3 -549 -2 0 -140 0 -140 373 -1 c487 -1 496 -2 515 -44 16 -36 15
-49 -7 -76 l-19 -24 -1057 -5 -1057 -5 -27 -75 c-87 -246 -297 -434 -541 -486
-111 -23 -280 -15 -385 19 -202 66 -382 235 -457 429 l-23 58 -255 0 c-245 0
-256 1 -294 23 -25 14 -48 39 -63 67 -23 43 -24 53 -21 191 3 142 4 147 33
195 17 27 45 58 62 69 17 11 34 29 37 40 3 11 6 171 6 356 0 355 2 371 49 442
49 76 93 95 364 163 136 34 251 64 254 67 3 3 65 149 139 324 124 296 137 321
179 360 50 45 95 63 163 63 40 0 44 3 70 46 141 240 390 418 669 478 97 21
888 23 955 2z m2761 -1547 c25 -11 47 -47 47 -74 0 -27 -22 -63 -47 -74 -15
-7 -99 -11 -224 -11 l-201 0 -29 29 c-16 16 -29 39 -29 50 0 31 20 68 44 79
29 15 408 15 439 1z m802 -711 c22 -5 71 -26 110 -46 205 -107 319 -349 272
-577 -24 -114 -68 -197 -146 -276 -108 -108 -231 -159 -384 -159 -206 0 -383
111 -471 295 -203 421 167 878 619 763z m-1499 -13 c41 -14 93 -37 116 -51
293 -185 341 -592 99 -835 -209 -209 -523 -209 -733 1 -115 115 -166 252 -155
420 12 183 115 346 274 432 116 63 271 76 399 33z m740 -8 c29 -34 25 -60 -13
-95 -25 -23 -30 -23 -183 -20 l-158 3 -55 38 c-60 41 -76 69 -56 93 10 13 45
15 227 12 l214 -3 24 -28z m1574 24 c13 -9 15 -45 12 -238 -2 -130 -8 -240
-14 -255 -6 -15 -27 -38 -47 -50 -32 -21 -51 -23 -183 -26 l-147 -4 -6 24 c-4
13 -5 47 -3 74 l3 49 114 3 c64 1 121 8 128 14 9 8 13 45 13 139 l0 129 -170
0 c-127 0 -180 4 -206 15 -43 18 -154 104 -154 119 0 15 638 22 660 7z m-1609
-442 c13 -21 11 -93 -4 -112 -11 -15 -29 -17 -152 -15 l-140 3 -3 67 -3 67 48
4 c98 9 244 1 254 -14z"/>
<path d="M3381 6675 c-210 -46 -379 -147 -499 -297 -29 -36 -52 -69 -52 -72 0
-3 252 -6 561 -6 l561 0 29 -29 29 -29 0 -831 0 -831 163 2 162 3 -3 1015 c-3
956 -4 1016 -21 1040 -35 49 -39 50 -466 49 -301 0 -416 -4 -464 -14z"/>
<path d="M2530 6108 c-19 -32 -230 -531 -230 -545 0 -5 170 -6 378 -3 417 6
403 3 456 72 19 26 135 337 180 486 l7 22 -385 0 -386 0 -20 -32z"/>
<path d="M3406 5907 c-43 -127 -91 -259 -106 -293 -34 -77 -84 -132 -152 -170
l-53 -29 -470 -6 -470 -6 -232 -60 c-128 -33 -244 -68 -258 -77 -51 -34 -65
-82 -65 -231 0 -122 2 -135 18 -135 9 0 85 -3 167 -6 133 -5 153 -8 173 -27
28 -26 29 -70 2 -97 -18 -18 -33 -20 -190 -20 l-170 0 0 -115 0 -115 194 0
194 0 28 48 c191 329 575 465 918 326 259 -105 445 -369 471 -670 l7 -79 227
3 226 3 -3 994 -2 995 -188 0 -187 0 -79 -233z m368 -642 c0 -36 -5 -70 -10
-75 -7 -7 -65 -9 -150 -8 l-139 3 -3 58 c-2 35 2 64 9 73 9 11 43 14 153 14
l141 0 -1 -65z"/>
<path d="M5149 5707 c-58 -34 -122 -72 -143 -85 l-38 -22 134 -81 c73 -45 138
-83 145 -86 12 -5 293 156 293 168 0 6 -260 160 -280 166 -3 1 -52 -26 -111
-60z"/>
<path d="M6207 5686 l-138 -84 140 -86 c78 -47 143 -86 146 -86 8 0 248 150
263 164 10 9 -17 29 -124 92 -75 43 -140 80 -143 81 -3 1 -68 -35 -144 -81z"/>
<path d="M7223 5687 c-72 -45 -134 -84 -137 -87 -3 -3 57 -43 133 -88 l138
-83 137 82 c75 45 136 85 136 89 0 6 -264 171 -272 170 -2 -1 -62 -38 -135
-83z"/>
<path d="M8303 5687 c-73 -45 -133 -85 -133 -88 0 -6 231 -156 254 -165 15 -6
288 157 288 171 0 8 -260 164 -272 164 -3 0 -65 -37 -137 -82z"/>
<path d="M5468 5377 l-138 -81 0 -218 0 -217 137 84 c81 49 140 92 145 105 6
18 2 399 -5 406 -1 1 -64 -34 -139 -79z"/>
<path d="M6000 5247 l0 -215 132 -78 c72 -44 135 -80 140 -82 4 -2 8 93 8 211
l0 215 -67 38 c-38 21 -90 52 -118 69 -27 18 -60 37 -72 44 l-23 12 0 -214z"/>
<path d="M7568 5377 l-138 -82 0 -213 c0 -118 3 -212 8 -210 4 2 67 39 140 83
l132 80 0 212 c0 117 -1 213 -2 212 -2 0 -65 -37 -140 -82z"/>
<path d="M8090 5248 l0 -213 135 -82 135 -81 0 211 0 212 -122 75 c-67 41
-127 79 -135 83 -11 7 -13 -31 -13 -205z"/>
<path d="M8648 5379 l-138 -81 0 -218 0 -219 145 87 145 86 0 213 c0 117 -3
213 -7 213 -5 -1 -70 -37 -145 -81z"/>
<path d="M4900 5241 l0 -209 132 -78 c72 -44 135 -80 140 -82 4 -2 8 92 8 210
l0 214 -135 77 c-74 42 -137 77 -140 77 -3 0 -5 -94 -5 -209z"/>
<path d="M2521 4784 c-106 -28 -180 -72 -266 -158 -92 -91 -142 -181 -171
-301 -22 -94 -15 -244 17 -339 59 -178 200 -324 375 -388 72 -26 234 -36 317
-18 129 26 291 141 368 261 43 68 86 196 94 283 21 219 -97 464 -279 584 -127
83 -314 114 -455 76z m301 -272 c93 -44 142 -91 185 -179 35 -70 38 -83 38
-162 0 -106 -14 -153 -68 -232 -170 -249 -536 -215 -666 61 -23 48 -26 68 -26
160 0 92 3 112 26 160 50 105 144 187 248 217 75 21 189 10 263 -25z"/>
<path d="M2553 4379 c-48 -24 -99 -77 -119 -125 -20 -48 -17 -151 5 -199 22
-50 86 -108 137 -126 58 -20 142 -16 190 9 56 29 119 102 134 157 31 111 -23
231 -131 285 -54 28 -159 27 -216 -1z"/>
<path d="M4010 4292 l0 -147 227 3 c126 1 234 4 241 7 9 3 12 40 12 140 l0
135 -217 1 c-120 0 -228 2 -240 5 l-23 4 0 -148z"/>
<path d="M1490 4350 c-18 -18 -20 -33 -20 -128 0 -71 4 -112 12 -120 9 -9 73
-12 225 -12 l213 0 0 98 c1 53 5 116 9 140 l8 42 -213 0 c-201 0 -215 -1 -234
-20z"/>
<path d="M7601 4414 c-98 -35 -184 -115 -229 -212 -24 -50 -27 -70 -27 -157 0
-88 3 -107 27 -157 35 -76 104 -148 181 -189 52 -28 75 -34 144 -37 99 -5 163
12 241 65 107 73 166 187 166 323 0 75 -4 93 -31 152 -42 89 -101 151 -181
190 -56 28 -77 33 -156 35 -65 2 -104 -1 -135 -13z m196 -175 c33 -12 90 -64
108 -99 68 -133 -34 -300 -185 -300 -203 0 -284 263 -116 378 41 27 57 32 106
32 32 0 71 -5 87 -11z"/>
<path d="M7666 4088 c-53 -76 52 -151 107 -77 33 45 1 99 -58 99 -24 0 -39 -7
-49 -22z"/>
<path d="M6093 4412 c-101 -36 -170 -99 -221 -202 -24 -49 -27 -66 -27 -160 0
-93 3 -112 26 -161 52 -110 146 -187 264 -216 201 -49 407 91 446 305 32 168
-62 348 -219 420 -76 35 -194 41 -269 14z m238 -197 c99 -70 116 -211 36 -302
-113 -129 -320 -76 -358 91 -20 91 20 180 101 224 38 20 56 23 112 20 55 -3
75 -9 109 -33z"/>
<path d="M6166 4095 c-26 -27 -29 -56 -9 -84 29 -38 74 -40 102 -5 11 15 21
35 21 45 0 47 -80 78 -114 44z"/>
<path d="M8046 4550 c6 -6 21 -6 39 -1 30 9 30 9 -9 10 -26 1 -37 -2 -30 -9z"/>
</g>
</svg>
